g OBJ_CollectibleNoteLarge
v -0.07901445 0.0001463508 0.1378344
v -0.07901445 0.01743042 0.0459448
v 0.07901451 0.01743042 0.0459448
v 0.07901451 0.0001463508 0.1378344
v -0.07901445 0.0001463508 -0.04594478
v -0.07901445 0.01743042 -0.1378344
v 0.07901451 0.01743042 -0.1378344
v 0.07901451 0.0001463508 -0.04594478
v -0.07901445 0.01743042 0.0459448
v -0.07901445 0.0001463508 -0.04594478
v 0.07901451 0.0001463508 -0.04594478
v 0.07901451 0.01743042 0.0459448
v -0.07901447 0.0001463508 0.1378344
v 0.07901449 0.0001463508 0.1378344
v 0.07901449 0.01743042 0.0459448
v -0.07901447 0.01743042 0.0459448
v -0.07901447 0.0001463508 -0.04594478
v 0.07901449 0.0001463508 -0.04594478
v 0.07901449 0.01743042 -0.1378344
v -0.07901447 0.01743042 -0.1378344
v -0.07901447 0.01743042 0.0459448
v 0.07901449 0.01743042 0.0459448
v 0.07901449 0.0001463508 -0.04594478
v -0.07901447 0.0001463508 -0.04594478
vt 0.5061831 0
vt 0.5061831 0.3689552
vt 0.9953325 0.3689552
vt 0.9953325 0
vt 0.5061831 0.689405
vt 0.5061831 1
vt 0.9953325 1
vt 0.9953325 0.689405
vt 0.5061831 0.3689552
vt 0.5061831 0.689405
vt 0.9953325 0.689405
vt 0.9953325 0.3689552
vt 0.01180789 0
vt 0.4958917 0
vt 0.4958917 0.3689552
vt 0.01180789 0.3689552
vt 0.01180789 0.689405
vt 0.4958917 0.689405
vt 0.4958917 1
vt 0.01180789 1
vt 0.01180789 0.3689552
vt 0.4958917 0.3689552
vt 0.4958917 0.689405
vt 0.01180789 0.689405
vn 0 0.9827659 0.1848544
vn 0 0.9827659 0.1848544
vn 0 0.9827659 0.1848544
vn 0 0.9827659 0.1848544
vn 0 0.9827659 0.1848544
vn 0 0.9827659 0.1848544
vn 0 0.9827659 0.1848544
vn 0 0.9827659 0.1848544
vn 0 0.9827659 -0.1848544
vn 0 0.9827659 -0.1848544
vn 0 0.9827659 -0.1848544
vn 0 0.9827659 -0.1848544
vn 0 -0.9827659 -0.1848544
vn 0 -0.9827659 -0.1848544
vn 0 -0.9827659 -0.1848544
vn 0 -0.9827659 -0.1848544
vn 0 -0.9827659 -0.1848544
vn 0 -0.9827659 -0.1848544
vn 0 -0.9827659 -0.1848544
vn 0 -0.9827659 -0.1848544
vn 0 -0.9827659 0.1848544
vn 0 -0.9827659 0.1848544
vn 0 -0.9827659 0.1848544
vn 0 -0.9827659 0.1848544
g OBJ_CollectibleNoteLarge_0
f 3/3/3 2/2/2 1/1/1
f 4/4/4 3/3/3 1/1/1
f 7/7/7 6/6/6 5/5/5
f 8/8/8 7/7/7 5/5/5
f 11/11/11 10/10/10 9/9/9
f 12/12/12 11/11/11 9/9/9
f 15/15/15 14/14/14 13/13/13
f 16/16/16 15/15/15 13/13/13
f 19/19/19 18/18/18 17/17/17
f 20/20/20 19/19/19 17/17/17
f 23/23/23 22/22/22 21/21/21
f 24/24/24 23/23/23 21/21/21
